<svg width="500" height="500" viewBox="0 0 500 500" fill="none" xmlns="http://www.w3.org/2000/svg">
<g clip-path="url(#clip0_3669_78)">
<path d="M500 0H0V500H500V0Z" fill="black"/>
<g filter="url(#filter0_d_3669_78)">
<path d="M429.222 349.337C440.697 349.337 449.999 340.035 449.999 328.56C449.999 317.085 440.697 307.783 429.222 307.783C417.747 307.783 408.445 317.085 408.445 328.56C408.445 340.035 417.747 349.337 429.222 349.337Z" fill="url(#paint0_radial_3669_78)"/>
</g>
<path d="M50.094 250.788C50.094 229.946 54.3262 211.934 62.8847 196.75C71.3491 181.661 83.4814 170.062 99.1875 162.046C114.894 154.03 133.421 149.975 154.958 149.975C173.768 149.975 189.569 152.992 202.359 158.934C215.15 164.969 225.213 173.08 232.549 183.265C239.979 193.45 244.869 205.144 247.314 218.346L194.553 224.853C189.851 204.672 176.778 194.581 155.241 194.581C139.816 194.581 127.873 199.297 119.596 208.822C111.32 218.346 107.182 231.926 107.182 249.656C107.182 267.386 111.32 280.966 119.596 290.302C127.873 299.638 139.816 304.353 155.523 304.353C179.881 304.353 193.801 294.074 197.186 273.421H250.229C247.126 296.432 237.533 314.916 221.639 328.685C205.744 342.453 183.267 349.337 154.112 349.337C120.254 349.337 94.4851 340.473 76.7099 322.838C58.9346 305.203 50 281.154 50 250.694L50.094 250.788Z" fill="white"/>
<path d="M257.258 282.541C257.258 268.343 260.237 256.024 266.197 245.521C272.156 235.019 280.447 226.914 291.199 221.144C301.886 215.374 314.388 212.456 328.574 212.456C350.467 212.456 367.373 218.292 379.227 229.897C391.08 241.502 397.039 257.904 397.039 279.041V290.192H294.308C295.409 301.084 298.842 309.123 304.737 314.31C310.566 319.496 318.598 322.09 328.768 322.09C345.738 322.09 356.038 316.838 359.795 306.27H395.679C389.201 335.121 366.531 349.579 327.667 349.579C305.449 349.579 288.155 343.679 275.848 331.88C263.476 320.08 257.323 303.612 257.323 282.541H257.258ZM352.346 246.299C347.228 241.761 339.261 239.492 328.315 239.492C317.368 239.492 309.012 242.215 304.283 247.661C299.49 253.107 296.511 259.849 295.28 267.954H360.96C360.313 258.034 357.462 250.838 352.41 246.299H352.346Z" fill="white"/>
</g>
<defs>
<filter id="filter0_d_3669_78" x="404.445" y="307.783" width="49.5527" height="49.5537" filterUnits="userSpaceOnUse" color-interpolation-filters="sRGB">
<feFlood flood-opacity="0" result="BackgroundImageFix"/>
<feColorMatrix in="SourceAlpha" type="matrix" values="0 0 0 0 0 0 0 0 0 0 0 0 0 0 0 0 0 0 127 0" result="hardAlpha"/>
<feOffset dy="4"/>
<feGaussianBlur stdDeviation="2"/>
<feComposite in2="hardAlpha" operator="out"/>
<feColorMatrix type="matrix" values="0 0 0 0 0 0 0 0 0 0 0 0 0 0 0 0 0 0 0.25 0"/>
<feBlend mode="normal" in2="BackgroundImageFix" result="effect1_dropShadow_3669_78"/>
<feBlend mode="normal" in="SourceGraphic" in2="effect1_dropShadow_3669_78" result="shape"/>
</filter>
<radialGradient id="paint0_radial_3669_78" cx="0" cy="0" r="1" gradientUnits="userSpaceOnUse" gradientTransform="translate(429.222 328.56) rotate(90) scale(20.7768 20.7767)">
<stop stop-color="#1961DC"/>
<stop offset="1" stop-color="#15408A"/>
</radialGradient>
<clipPath id="clip0_3669_78">
<rect width="500" height="500" fill="white"/>
</clipPath>
</defs>
</svg>
