<svg width="473" height="50" viewBox="0 0 473 50" fill="none" xmlns="http://www.w3.org/2000/svg">
<path d="M35.7728 17.1147C35.394 15.8874 34.8713 14.7889 34.2046 13.8192C33.5531 12.8344 32.7653 11.9934 31.841 11.2965C30.9319 10.5995 29.8865 10.0768 28.7046 9.72825C27.5228 9.36462 26.2349 9.1828 24.841 9.1828C22.341 9.1828 20.1137 9.81159 18.1592 11.0692C16.2046 12.3268 14.6668 14.1753 13.5456 16.6147C12.4395 19.0389 11.8865 21.9934 11.8865 25.4783C11.8865 28.9934 12.4395 31.9707 13.5456 34.4101C14.6516 36.8495 16.1895 38.7056 18.1592 39.9783C20.1289 41.2359 22.4168 41.8647 25.0228 41.8647C27.3865 41.8647 29.4319 41.4101 31.1592 40.501C32.9016 39.5919 34.2425 38.3041 35.1819 36.6374C36.1213 34.9556 36.591 32.9859 36.591 30.7283L38.5001 31.0237H25.8637V24.4328H44.7501V30.0237C44.7501 34.0086 43.9016 37.4556 42.2046 40.3647C40.5077 43.2737 38.1743 45.5162 35.2046 47.0919C32.2349 48.6525 28.8259 49.4328 24.9774 49.4328C20.6895 49.4328 16.9243 48.4707 13.6819 46.5465C10.4546 44.6071 7.93191 41.8571 6.11373 38.2965C4.3107 34.7207 3.40918 30.4783 3.40918 25.5692C3.40918 21.8116 3.93948 18.4556 5.00009 15.501C6.07585 12.5465 7.57585 10.0389 9.50009 7.97825C11.4243 5.90249 13.6819 4.32674 16.2728 3.25098C18.8637 2.16007 21.6819 1.61462 24.7274 1.61462C27.3031 1.61462 29.7046 1.9934 31.9319 2.75098C34.1592 3.4934 36.1365 4.55401 37.8637 5.9328C39.6062 7.31159 41.038 8.94795 42.1592 10.8419C43.2804 12.7359 44.0153 14.8268 44.3637 17.1147H35.7728ZM74.7899 34.1147V13.8874H83.0171V48.7965H75.0399V42.5919H74.6762C73.8884 44.5465 72.5929 46.145 70.7899 47.3874C69.002 48.6298 66.7974 49.251 64.1762 49.251C61.8884 49.251 59.8656 48.7434 58.1081 47.7283C56.3656 46.698 55.002 45.2056 54.0171 43.251C53.0323 41.2813 52.5399 38.9025 52.5399 36.1147V13.8874H60.7671V34.8419C60.7671 37.0541 61.3732 38.8116 62.5853 40.1147C63.7974 41.4177 65.3884 42.0692 67.3581 42.0692C68.5702 42.0692 69.7444 41.7737 70.8808 41.1828C72.0171 40.5919 72.949 39.7131 73.6762 38.5465C74.4187 37.3647 74.7899 35.8874 74.7899 34.1147ZM91.4774 48.7965V13.8874H99.7046V48.7965H91.4774ZM95.6137 8.9328C94.3107 8.9328 93.1895 8.50098 92.2501 7.63734C91.3107 6.75855 90.841 5.70552 90.841 4.47825C90.841 3.23583 91.3107 2.1828 92.2501 1.31916C93.1895 0.440369 94.3107 0.000976562 95.6137 0.000976562C96.9319 0.000976562 98.0531 0.440369 98.9774 1.31916C99.9168 2.1828 100.386 3.23583 100.386 4.47825C100.386 5.70552 99.9168 6.75855 98.9774 7.63734C98.0531 8.50098 96.9319 8.9328 95.6137 8.9328ZM121.119 49.4101C118.377 49.4101 115.922 48.7056 113.756 47.2965C111.589 45.8874 109.877 43.8419 108.619 41.1601C107.362 38.4783 106.733 35.2207 106.733 31.3874C106.733 27.5086 107.369 24.2359 108.642 21.5692C109.93 18.8874 111.665 16.8647 113.847 15.501C116.028 14.1222 118.46 13.4328 121.142 13.4328C123.188 13.4328 124.869 13.7813 126.188 14.4783C127.506 15.1601 128.551 15.9859 129.324 16.9556C130.097 17.9101 130.695 18.8116 131.119 19.6601H131.46V2.25098H139.71V48.7965H131.619V43.2965H131.119C130.695 44.145 130.081 45.0465 129.278 46.001C128.475 46.9404 127.415 47.7434 126.097 48.4101C124.778 49.0768 123.119 49.4101 121.119 49.4101ZM123.415 42.6601C125.157 42.6601 126.642 42.1904 127.869 41.251C129.097 40.2965 130.028 38.9707 130.665 37.2737C131.301 35.5768 131.619 33.5995 131.619 31.3419C131.619 29.0844 131.301 27.1222 130.665 25.4556C130.044 23.7889 129.119 22.4934 127.892 21.5692C126.68 20.645 125.188 20.1828 123.415 20.1828C121.581 20.1828 120.051 20.6601 118.824 21.6147C117.597 22.5692 116.672 23.8874 116.051 25.5692C115.43 27.251 115.119 29.1753 115.119 31.3419C115.119 33.5237 115.43 35.4707 116.051 37.1828C116.688 38.8798 117.619 40.2207 118.847 41.2056C120.089 42.1753 121.612 42.6601 123.415 42.6601ZM163.932 49.4783C160.432 49.4783 157.409 48.751 154.864 47.2965C152.333 45.8268 150.386 43.751 149.023 41.0692C147.659 38.3722 146.977 35.198 146.977 31.5465C146.977 27.9556 147.659 24.8041 149.023 22.0919C150.402 19.3647 152.326 17.2434 154.795 15.7283C157.265 14.198 160.167 13.4328 163.5 13.4328C165.652 13.4328 167.682 13.7813 169.591 14.4783C171.515 15.1601 173.212 16.2207 174.682 17.6601C176.167 19.0995 177.333 20.9328 178.182 23.1601C179.03 25.3722 179.455 28.0086 179.455 31.0692V33.5919H150.841V28.0465H171.568C171.553 26.4707 171.212 25.0692 170.545 23.8419C169.879 22.5995 168.947 21.6222 167.75 20.9101C166.568 20.198 165.189 19.8419 163.614 19.8419C161.932 19.8419 160.455 20.251 159.182 21.0692C157.909 21.8722 156.917 22.9328 156.205 24.251C155.508 25.554 155.152 26.9859 155.136 28.5465V33.3874C155.136 35.4177 155.508 37.1601 156.25 38.6147C156.992 40.0541 158.03 41.1601 159.364 41.9328C160.697 42.6904 162.258 43.0692 164.045 43.0692C165.242 43.0692 166.326 42.9025 167.295 42.5692C168.265 42.2207 169.106 41.7131 169.818 41.0465C170.53 40.3798 171.068 39.5541 171.432 38.5692L179.114 39.4328C178.629 41.4631 177.705 43.2359 176.341 44.751C174.992 46.251 173.265 47.4177 171.159 48.251C169.053 49.0692 166.644 49.4783 163.932 49.4783ZM193.432 48.7965L183.568 13.8874H191.955L198.091 38.4328H198.409L204.682 13.8874H212.977L219.25 38.2965H219.591L225.636 13.8874H234.045L224.159 48.7965H215.591L209.045 25.2056H208.568L202.023 48.7965H193.432ZM239.79 48.7965V13.8874H248.017V48.7965H239.79ZM243.926 8.9328C242.623 8.9328 241.502 8.50098 240.562 7.63734C239.623 6.75855 239.153 5.70552 239.153 4.47825C239.153 3.23583 239.623 2.1828 240.562 1.31916C241.502 0.440369 242.623 0.000976562 243.926 0.000976562C245.244 0.000976562 246.366 0.440369 247.29 1.31916C248.229 2.1828 248.699 3.23583 248.699 4.47825C248.699 5.70552 248.229 6.75855 247.29 7.63734C246.366 8.50098 245.244 8.9328 243.926 8.9328ZM256.477 48.7965V13.8874H264.455V19.7056H264.818C265.455 17.6904 266.545 16.1374 268.091 15.0465C269.652 13.9404 271.432 13.3874 273.432 13.3874C273.886 13.3874 274.394 13.4101 274.955 13.4556C275.53 13.4859 276.008 13.5389 276.386 13.6147V21.1828C276.038 21.0616 275.485 20.9556 274.727 20.8647C273.985 20.7586 273.265 20.7056 272.568 20.7056C271.068 20.7056 269.72 21.0313 268.523 21.6828C267.341 22.3192 266.409 23.2056 265.727 24.3419C265.045 25.4783 264.705 26.7889 264.705 28.2737V48.7965H256.477ZM295.869 49.4783C292.369 49.4783 289.347 48.751 286.801 47.2965C284.271 45.8268 282.324 43.751 280.96 41.0692C279.597 38.3722 278.915 35.198 278.915 31.5465C278.915 27.9556 279.597 24.8041 280.96 22.0919C282.339 19.3647 284.263 17.2434 286.733 15.7283C289.203 14.198 292.104 13.4328 295.438 13.4328C297.589 13.4328 299.619 13.7813 301.528 14.4783C303.453 15.1601 305.15 16.2207 306.619 17.6601C308.104 19.0995 309.271 20.9328 310.119 23.1601C310.968 25.3722 311.392 28.0086 311.392 31.0692V33.5919H282.778V28.0465H303.506C303.491 26.4707 303.15 25.0692 302.483 23.8419C301.816 22.5995 300.884 21.6222 299.688 20.9101C298.506 20.198 297.127 19.8419 295.551 19.8419C293.869 19.8419 292.392 20.251 291.119 21.0692C289.847 21.8722 288.854 22.9328 288.142 24.251C287.445 25.554 287.089 26.9859 287.074 28.5465V33.3874C287.074 35.4177 287.445 37.1601 288.188 38.6147C288.93 40.0541 289.968 41.1601 291.301 41.9328C292.634 42.6904 294.195 43.0692 295.983 43.0692C297.18 43.0692 298.263 42.9025 299.233 42.5692C300.203 42.2207 301.044 41.7131 301.756 41.0465C302.468 40.3798 303.006 39.5541 303.369 38.5692L311.051 39.4328C310.566 41.4631 309.642 43.2359 308.278 44.751C306.93 46.251 305.203 47.4177 303.097 48.251C300.991 49.0692 298.581 49.4783 295.869 49.4783Z" fill="#040404"/>
<path d="M413.5 1.29688H342.5C329.245 1.29688 318.5 12.042 318.5 25.2969C318.5 38.5517 329.245 49.2969 342.5 49.2969H413.5C426.755 49.2969 437.5 38.5517 437.5 25.2969C437.5 12.042 426.755 1.29688 413.5 1.29688Z" fill="#34D399" stroke="#0F3362"/>
<path d="M364.137 20.6553H359.137C358.995 19.8353 358.732 19.1089 358.349 18.4761C357.965 17.8344 357.489 17.2907 356.918 16.8451C356.348 16.3995 355.697 16.0652 354.966 15.8424C354.244 15.6107 353.464 15.4948 352.627 15.4948C351.138 15.4948 349.819 15.8692 348.669 16.6178C347.52 17.3576 346.62 18.4449 345.969 19.8799C345.318 21.3059 344.993 23.0483 344.993 25.1071C344.993 27.2016 345.318 28.9663 345.969 30.4013C346.628 31.8273 347.529 32.9057 348.669 33.6365C349.819 34.3585 351.134 34.7194 352.613 34.7194C353.433 34.7194 354.2 34.6125 354.913 34.3986C355.635 34.1758 356.281 33.8505 356.851 33.4226C357.431 32.9948 357.916 32.469 358.308 31.8451C358.71 31.2212 358.986 30.5082 359.137 29.7061L364.137 29.7328C363.95 31.0341 363.545 32.2551 362.921 33.3959C362.306 34.5367 361.499 35.5439 360.501 36.4173C359.503 37.2818 358.335 37.9592 356.998 38.4494C355.661 38.9307 354.177 39.1713 352.546 39.1713C350.14 39.1713 347.992 38.6143 346.103 37.5002C344.213 36.3861 342.725 34.7774 341.637 32.674C340.55 30.5706 340.006 28.0483 340.006 25.1071C340.006 22.157 340.554 19.6348 341.651 17.5403C342.747 15.4369 344.24 13.8282 346.129 12.7141C348.019 11.6 350.158 11.043 352.546 11.043C354.071 11.043 355.488 11.2569 356.798 11.6847C358.108 12.1125 359.276 12.7408 360.3 13.5697C361.325 14.3897 362.168 15.3968 362.827 16.5911C363.496 17.7765 363.932 19.1312 364.137 20.6553ZM393.145 25.1071C393.145 28.0572 392.592 30.584 391.487 32.6873C390.391 34.7818 388.893 36.3861 386.995 37.5002C385.105 38.6143 382.962 39.1713 380.565 39.1713C378.167 39.1713 376.019 38.6143 374.121 37.5002C372.231 36.3772 370.734 34.7685 369.629 32.674C368.532 30.5706 367.984 28.0483 367.984 25.1071C367.984 22.157 368.532 19.6348 369.629 17.5403C370.734 15.4369 372.231 13.8282 374.121 12.7141C376.019 11.6 378.167 11.043 380.565 11.043C382.962 11.043 385.105 11.6 386.995 12.7141C388.893 13.8282 390.391 15.4369 391.487 17.5403C392.592 19.6348 393.145 22.157 393.145 25.1071ZM388.158 25.1071C388.158 23.0305 387.833 21.2792 387.182 19.8531C386.54 18.4182 385.649 17.3353 384.508 16.6045C383.368 15.8647 382.053 15.4948 380.565 15.4948C379.076 15.4948 377.761 15.8647 376.621 16.6045C375.48 17.3353 374.584 18.4182 373.933 19.8531C373.292 21.2792 372.971 23.0305 372.971 25.1071C372.971 27.1838 373.292 28.9396 373.933 30.3745C374.584 31.8005 375.48 32.8834 376.621 33.6232C377.761 34.354 379.076 34.7194 380.565 34.7194C382.053 34.7194 383.368 34.354 384.508 33.6232C385.649 32.8834 386.54 31.8005 387.182 30.3745C387.833 28.9396 388.158 27.1838 388.158 25.1071ZM397.834 38.797V11.4173H415.641V15.5751H402.794V23.0082H414.719V27.166H402.794V34.6392H415.748V38.797H397.834Z" fill="white"/>
</svg>
